<svg width="392" height="705" viewBox="0 0 392 705" fill="none" xmlns="http://www.w3.org/2000/svg">
<g clip-path="url(#clip0_62_2)">
<path d="M392 0H0V705H392V0Z" fill="#F5F5F5"/>
<path d="M391.5 0.5H0.5V704.5H391.5V0.5Z" fill="white"/>
<path d="M391.5 0.5H0.5V704.5H391.5V0.5Z" stroke="black"/>
<path d="M69.5 49.5C69.5 62.7851 59.3971 73.5 47 73.5C34.6029 73.5 24.5 62.7851 24.5 49.5C24.5 36.2149 34.6029 25.5 47 25.5C59.3971 25.5 69.5 36.2149 69.5 49.5Z" fill="#D9D9D9" stroke="black"/>
<path d="M326.667 47.2C326.667 45.2904 325.964 43.4591 324.714 42.1088C323.464 40.7586 321.768 40 320 40C318.232 40 316.536 40.7586 315.286 42.1088C314.036 43.4591 313.333 45.2904 313.333 47.2C313.333 55.6 310 58 310 58H330C330 58 326.667 55.6 326.667 47.2Z" stroke="black" stroke-width="2" stroke-linecap="round" stroke-linejoin="round"/>
<path d="M322 59C321.797 59.6083 321.505 60.1132 321.154 60.4642C320.803 60.8153 320.405 61 320 61C319.595 61 319.197 60.8153 318.846 60.4642C318.495 60.1132 318.203 59.6083 318 59" stroke="black" stroke-width="2" stroke-linecap="round" stroke-linejoin="round"/>
<path d="M88 41.5H165" stroke="black"/>
<path d="M88 57.5H165" stroke="black"/>
<path d="M88 48.5H165" stroke="black"/>
<path d="M88 41.5H165" stroke="black"/>
<path d="M88 57.5H165" stroke="black"/>
<path d="M88 48.5H165" stroke="black"/>
<path d="M119 467.5H196" stroke="black"/>
<path d="M119 483.5H196" stroke="black"/>
<path d="M119 474.5H196" stroke="black"/>
<path d="M119 467.5H196" stroke="black"/>
<path d="M119 483.5H196" stroke="black"/>
<path d="M119 474.5H196" stroke="black"/>
<path d="M357.5 105.5H37.5V148.5H357.5V105.5Z" fill="white" stroke="black"/>
<path d="M63.399 125.891L62.7044 126.087C62.6363 125.891 62.5397 125.713 62.4147 125.554C62.2897 125.395 62.1263 125.268 61.9246 125.175C61.7258 125.081 61.4786 125.034 61.1831 125.034C60.74 125.034 60.3763 125.139 60.0922 125.349C59.8081 125.56 59.6661 125.831 59.6661 126.163C59.6661 126.445 59.7627 126.673 59.9559 126.849C60.1519 127.023 60.453 127.161 60.8593 127.263L61.8479 127.506C62.3962 127.639 62.8067 127.851 63.0794 128.141C63.355 128.43 63.4928 128.794 63.4928 129.232C63.4928 129.601 63.3905 129.929 63.186 130.216C62.9814 130.503 62.6959 130.729 62.3294 130.893C61.9658 131.055 61.5439 131.136 61.0638 131.136C60.4246 131.136 59.8976 130.993 59.4829 130.706C59.0681 130.416 58.8025 129.999 58.686 129.453L59.4147 129.274C59.5084 129.663 59.6917 129.957 59.9644 130.156C60.24 130.355 60.6022 130.455 61.051 130.455C61.5539 130.455 61.9559 130.342 62.257 130.118C62.5581 129.891 62.7087 129.607 62.7087 129.266C62.7087 129.001 62.6206 128.78 62.4445 128.601C62.2684 128.419 62.0013 128.286 61.6434 128.2L60.5738 127.945C60.0056 127.808 59.5851 127.592 59.3124 127.297C59.0397 127.001 58.9033 126.635 58.9033 126.197C58.9033 125.837 59.0013 125.52 59.1973 125.247C59.3934 124.972 59.6633 124.756 60.007 124.599C60.3508 124.443 60.7428 124.365 61.1831 124.365C61.7826 124.365 62.2613 124.501 62.6192 124.774C62.98 125.044 63.24 125.416 63.399 125.891ZM67.8 131.136C67.1892 131.136 66.6608 130.994 66.2147 130.71C65.7687 130.423 65.4236 130.027 65.1792 129.521C64.9378 129.013 64.817 128.428 64.817 127.766C64.817 127.107 64.9378 126.521 65.1792 126.01C65.4236 125.496 65.7602 125.094 66.1892 124.804C66.621 124.511 67.1196 124.365 67.6849 124.365C68.04 124.365 68.3824 124.43 68.7119 124.561C69.0414 124.689 69.3369 124.886 69.5983 125.153C69.8625 125.418 70.0713 125.751 70.2247 126.155C70.3781 126.555 70.4548 127.03 70.4548 127.578V127.953H65.3412V127.284H69.6792C69.6792 126.864 69.594 126.486 69.4236 126.151C69.2559 125.812 69.0216 125.545 68.7204 125.349C68.4221 125.153 68.077 125.055 67.6849 125.055C67.2701 125.055 66.9051 125.166 66.5897 125.388C66.2744 125.609 66.0272 125.902 65.8483 126.266C65.6721 126.629 65.5826 127.027 65.5798 127.459V127.859C65.5798 128.379 65.6693 128.834 65.8483 129.223C66.0301 129.609 66.2872 129.909 66.6196 130.122C66.952 130.335 67.3454 130.442 67.8 130.442C68.1096 130.442 68.3809 130.393 68.6139 130.297C68.8497 130.2 69.0471 130.071 69.2062 129.909C69.3682 129.744 69.4903 129.564 69.5727 129.368L70.2929 129.602C70.1934 129.878 70.0301 130.132 69.8028 130.365C69.5784 130.598 69.2971 130.786 68.9591 130.928C68.6238 131.067 68.2375 131.136 67.8 131.136ZM73.9544 131.149C73.5596 131.149 73.1988 131.072 72.8721 130.919C72.5454 130.763 72.2854 130.538 72.0922 130.246C71.899 129.95 71.8025 129.592 71.8025 129.172C71.8025 128.848 71.8635 128.575 71.9857 128.354C72.1079 128.132 72.2812 127.95 72.5056 127.808C72.73 127.666 72.9956 127.554 73.3025 127.472C73.6093 127.389 73.9473 127.325 74.3167 127.28C74.6831 127.234 74.9928 127.195 75.2456 127.161C75.5013 127.126 75.6959 127.072 75.8294 126.999C75.963 126.925 76.0297 126.805 76.0297 126.641V126.487C76.0297 126.041 75.8962 125.69 75.6292 125.435C75.365 125.176 74.9843 125.047 74.4871 125.047C74.0155 125.047 73.6306 125.151 73.3323 125.358C73.0368 125.565 72.8294 125.81 72.7101 126.091L71.99 125.831C72.1377 125.473 72.3422 125.187 72.6036 124.974C72.865 124.759 73.1576 124.604 73.4814 124.51C73.8053 124.413 74.1334 124.365 74.4658 124.365C74.7158 124.365 74.9758 124.398 75.2456 124.463C75.5184 124.528 75.7712 124.642 76.0042 124.804C76.2371 124.963 76.426 125.186 76.5709 125.473C76.7158 125.757 76.7883 126.118 76.7883 126.555V131H76.0297V129.964H75.9829C75.8919 130.158 75.757 130.345 75.578 130.527C75.399 130.709 75.1746 130.858 74.9047 130.974C74.6348 131.091 74.3181 131.149 73.9544 131.149ZM74.0567 130.455C74.4601 130.455 74.8096 130.365 75.105 130.186C75.4005 130.007 75.6277 129.77 75.7868 129.474C75.9488 129.176 76.0297 128.848 76.0297 128.49V127.544C75.9729 127.598 75.8777 127.646 75.7442 127.689C75.6135 127.732 75.4615 127.77 75.2883 127.804C75.1178 127.835 74.9473 127.862 74.7769 127.885C74.6064 127.908 74.453 127.928 74.3167 127.945C73.9473 127.99 73.632 128.061 73.3706 128.158C73.1093 128.254 72.909 128.388 72.7698 128.558C72.6306 128.726 72.561 128.942 72.561 129.206C72.561 129.604 72.703 129.912 72.9871 130.131C73.2712 130.347 73.6277 130.455 74.0567 130.455ZM78.806 131V124.455H79.5432V125.46H79.5986C79.7293 125.131 79.9566 124.865 80.2804 124.663C80.6071 124.459 80.9765 124.357 81.3884 124.357C81.4509 124.357 81.5205 124.358 81.5972 124.361C81.6739 124.364 81.7378 124.366 81.789 124.369V125.141C81.7549 125.135 81.6952 125.126 81.61 125.115C81.5248 125.104 81.4324 125.098 81.333 125.098C80.9921 125.098 80.6881 125.17 80.4211 125.315C80.1569 125.457 79.9481 125.655 79.7946 125.908C79.6412 126.161 79.5645 126.449 79.5645 126.773V131H78.806ZM85.441 131.136C84.8557 131.136 84.3458 130.99 83.9111 130.697C83.4793 130.405 83.1441 130.004 82.9054 129.496C82.6668 128.987 82.5475 128.408 82.5475 127.757C82.5475 127.101 82.6682 126.517 82.9097 126.006C83.154 125.494 83.4921 125.094 83.9239 124.804C84.3557 124.511 84.8571 124.365 85.4282 124.365C85.8657 124.365 86.262 124.45 86.6171 124.621C86.9722 124.788 87.2648 125.026 87.4949 125.332C87.7279 125.636 87.8742 125.991 87.9338 126.398H87.1668C87.0873 126.028 86.8955 125.713 86.5915 125.452C86.2904 125.187 85.9069 125.055 85.441 125.055C85.0233 125.055 84.654 125.169 84.333 125.396C84.012 125.621 83.7606 125.935 83.5787 126.338C83.3998 126.739 83.3103 127.203 83.3103 127.732C83.3103 128.263 83.3983 128.733 83.5745 129.142C83.7506 129.548 83.9978 129.866 84.316 130.097C84.637 130.327 85.012 130.442 85.441 130.442C85.7307 130.442 85.9949 130.388 86.2336 130.28C86.475 130.169 86.6767 130.013 86.8387 129.811C87.0035 129.609 87.1142 129.369 87.1711 129.091H87.9381C87.8813 129.486 87.7407 129.838 87.5162 130.148C87.2946 130.455 87.0063 130.696 86.6512 130.872C86.2989 131.048 85.8955 131.136 85.441 131.136ZM90.3223 126.909V131H89.5638V122.273H90.3223V125.482H90.3905C90.5439 125.143 90.7812 124.874 91.1022 124.672C91.426 124.47 91.8351 124.369 92.3294 124.369C92.7726 124.369 93.1618 124.46 93.4971 124.642C93.8323 124.824 94.0937 125.092 94.2811 125.447C94.4687 125.803 94.5624 126.24 94.5624 126.76V131H93.7996V126.807C93.7996 126.267 93.649 125.842 93.3479 125.533C93.0496 125.22 92.6462 125.064 92.1377 125.064C91.7883 125.064 91.4772 125.138 91.2044 125.286C90.9317 125.433 90.7158 125.646 90.5567 125.925C90.4005 126.2 90.3223 126.528 90.3223 126.909ZM102.628 124.455V125.115H99.4108V124.455H102.628ZM100.417 131V123.496C100.417 123.143 100.498 122.847 100.659 122.605C100.824 122.364 101.039 122.18 101.303 122.055C101.567 121.93 101.847 121.868 102.142 121.868C102.341 121.868 102.506 121.885 102.637 121.919C102.77 121.95 102.875 121.982 102.952 122.013L102.73 122.678C102.674 122.661 102.604 122.641 102.522 122.618C102.439 122.595 102.336 122.584 102.211 122.584C101.881 122.584 101.627 122.676 101.448 122.861C101.269 123.045 101.179 123.31 101.179 123.653L101.175 131H100.417ZM106.417 131.136C105.851 131.136 105.351 130.993 104.917 130.706C104.485 130.419 104.147 130.023 103.902 129.517C103.658 129.009 103.536 128.422 103.536 127.757C103.536 127.087 103.658 126.497 103.902 125.989C104.147 125.477 104.485 125.08 104.917 124.795C105.351 124.509 105.851 124.365 106.417 124.365C106.982 124.365 107.48 124.509 107.912 124.795C108.344 125.082 108.682 125.48 108.926 125.989C109.174 126.497 109.297 127.087 109.297 127.757C109.297 128.422 109.175 129.009 108.931 129.517C108.686 130.023 108.347 130.419 107.912 130.706C107.48 130.993 106.982 131.136 106.417 131.136ZM106.417 130.442C106.871 130.442 107.256 130.32 107.571 130.075C107.887 129.831 108.125 129.506 108.287 129.099C108.452 128.693 108.534 128.246 108.534 127.757C108.534 127.268 108.452 126.82 108.287 126.411C108.125 126.001 107.887 125.673 107.571 125.426C107.256 125.179 106.871 125.055 106.417 125.055C105.965 125.055 105.58 125.179 105.262 125.426C104.946 125.673 104.706 126.001 104.542 126.411C104.38 126.82 104.299 127.268 104.299 127.757C104.299 128.246 104.38 128.693 104.542 129.099C104.706 129.506 104.946 129.831 105.262 130.075C105.577 130.32 105.962 130.442 106.417 130.442ZM110.962 131V124.455H111.7V125.46H111.755C111.886 125.131 112.113 124.865 112.437 124.663C112.763 124.459 113.133 124.357 113.545 124.357C113.607 124.357 113.677 124.358 113.754 124.361C113.83 124.364 113.894 124.366 113.945 124.369V125.141C113.911 125.135 113.852 125.126 113.766 125.115C113.681 125.104 113.589 125.098 113.489 125.098C113.148 125.098 112.844 125.17 112.577 125.315C112.313 125.457 112.104 125.655 111.951 125.908C111.798 126.161 111.721 126.449 111.721 126.773V131H110.962ZM120.443 131.149C120.048 131.149 119.687 131.072 119.36 130.919C119.034 130.763 118.774 130.538 118.581 130.246C118.387 129.95 118.291 129.592 118.291 129.172C118.291 128.848 118.352 128.575 118.474 128.354C118.596 128.132 118.77 127.95 118.994 127.808C119.218 127.666 119.484 127.554 119.791 127.472C120.098 127.389 120.436 127.325 120.805 127.28C121.172 127.234 121.481 127.195 121.734 127.161C121.99 127.126 122.184 127.072 122.318 126.999C122.451 126.925 122.518 126.805 122.518 126.641V126.487C122.518 126.041 122.385 125.69 122.118 125.435C121.853 125.176 121.473 125.047 120.975 125.047C120.504 125.047 120.119 125.151 119.821 125.358C119.525 125.565 119.318 125.81 119.199 126.091L118.478 125.831C118.626 125.473 118.831 125.187 119.092 124.974C119.353 124.759 119.646 124.604 119.97 124.51C120.294 124.413 120.622 124.365 120.954 124.365C121.204 124.365 121.464 124.398 121.734 124.463C122.007 124.528 122.26 124.642 122.493 124.804C122.725 124.963 122.914 125.186 123.059 125.473C123.204 125.757 123.277 126.118 123.277 126.555V131H122.518V129.964H122.471C122.38 130.158 122.245 130.345 122.066 130.527C121.887 130.709 121.663 130.858 121.393 130.974C121.123 131.091 120.806 131.149 120.443 131.149ZM120.545 130.455C120.949 130.455 121.298 130.365 121.593 130.186C121.889 130.007 122.116 129.77 122.275 129.474C122.437 129.176 122.518 128.848 122.518 128.49V127.544C122.461 127.598 122.366 127.646 122.233 127.689C122.102 127.732 121.95 127.77 121.777 127.804C121.606 127.835 121.436 127.862 121.265 127.885C121.095 127.908 120.941 127.928 120.805 127.945C120.436 127.99 120.12 128.061 119.859 128.158C119.598 128.254 119.397 128.388 119.258 128.558C119.119 128.726 119.049 128.942 119.049 129.206C119.049 129.604 119.191 129.912 119.475 130.131C119.76 130.347 120.116 130.455 120.545 130.455ZM126.053 126.909V131H125.294V124.455H126.032V125.482H126.1C126.253 125.146 126.492 124.878 126.816 124.676C127.142 124.472 127.546 124.369 128.026 124.369C128.466 124.369 128.853 124.462 129.185 124.646C129.52 124.828 129.78 125.097 129.965 125.452C130.152 125.807 130.246 126.243 130.246 126.76V131H129.488V126.807C129.488 126.27 129.337 125.845 129.036 125.533C128.738 125.22 128.337 125.064 127.834 125.064C127.49 125.064 127.185 125.138 126.918 125.286C126.651 125.433 126.439 125.646 126.283 125.925C126.13 126.2 126.053 126.528 126.053 126.909ZM132.538 133.455C132.387 133.455 132.246 133.44 132.116 133.412C131.985 133.384 131.881 133.352 131.805 133.318L132.009 132.649C132.268 132.729 132.498 132.757 132.7 132.734C132.901 132.714 133.08 132.624 133.237 132.462C133.393 132.303 133.532 132.058 133.654 131.729L133.893 131.064L131.485 124.455H132.308L134.251 129.999H134.31L136.254 124.455H137.076L134.306 132.036C134.19 132.351 134.046 132.614 133.876 132.824C133.705 133.037 133.508 133.195 133.283 133.297C133.062 133.402 132.813 133.455 132.538 133.455ZM141.138 124.455V125.115H138.015V124.455H141.138ZM138.99 122.886H139.753V129.291C139.753 129.564 139.8 129.778 139.894 129.935C139.988 130.088 140.11 130.197 140.26 130.263C140.411 130.325 140.571 130.357 140.742 130.357C140.841 130.357 140.926 130.351 140.998 130.339C141.069 130.325 141.131 130.311 141.185 130.297L141.347 130.983C141.273 131.011 141.182 131.037 141.074 131.06C140.966 131.085 140.833 131.098 140.674 131.098C140.395 131.098 140.127 131.037 139.868 130.915C139.613 130.793 139.402 130.611 139.238 130.369C139.073 130.128 138.99 129.828 138.99 129.47V122.886ZM143.76 126.909V131H143.001V122.273H143.76V125.482H143.828C143.982 125.143 144.219 124.874 144.54 124.672C144.864 124.47 145.273 124.369 145.767 124.369C146.21 124.369 146.599 124.46 146.935 124.642C147.27 124.824 147.531 125.092 147.719 125.447C147.906 125.803 148 126.24 148 126.76V131H147.237V126.807C147.237 126.267 147.087 125.842 146.786 125.533C146.487 125.22 146.084 125.064 145.575 125.064C145.226 125.064 144.915 125.138 144.642 125.286C144.369 125.433 144.153 125.646 143.994 125.925C143.838 126.2 143.76 126.528 143.76 126.909ZM150.006 131V124.455H150.769V131H150.006ZM150.394 123.33C150.238 123.33 150.104 123.277 149.993 123.172C149.882 123.064 149.827 122.935 149.827 122.784C149.827 122.634 149.882 122.506 149.993 122.401C150.104 122.293 150.238 122.239 150.394 122.239C150.55 122.239 150.684 122.293 150.794 122.401C150.905 122.506 150.961 122.634 150.961 122.784C150.961 122.935 150.905 123.064 150.794 123.172C150.684 123.277 150.55 123.33 150.394 123.33ZM153.533 126.909V131H152.775V124.455H153.512V125.482H153.58C153.734 125.146 153.972 124.878 154.296 124.676C154.623 124.472 155.026 124.369 155.506 124.369C155.947 124.369 156.333 124.462 156.665 124.646C157.001 124.828 157.261 125.097 157.445 125.452C157.633 125.807 157.727 126.243 157.727 126.76V131H156.968V126.807C156.968 126.27 156.817 125.845 156.516 125.533C156.218 125.22 155.817 125.064 155.315 125.064C154.971 125.064 154.665 125.138 154.398 125.286C154.131 125.433 153.92 125.646 153.763 125.925C153.61 126.2 153.533 126.528 153.533 126.909ZM162.221 133.591C161.775 133.591 161.385 133.533 161.049 133.416C160.714 133.303 160.431 133.146 160.201 132.947C159.971 132.749 159.792 132.526 159.664 132.278L160.287 131.869C160.38 132.034 160.505 132.196 160.662 132.355C160.821 132.514 161.027 132.646 161.279 132.751C161.535 132.857 161.849 132.909 162.221 132.909C162.801 132.909 163.268 132.764 163.623 132.474C163.981 132.185 164.16 131.734 164.16 131.124V129.649H164.092C164.004 129.848 163.877 130.047 163.713 130.246C163.548 130.442 163.332 130.605 163.065 130.736C162.801 130.866 162.473 130.932 162.081 130.932C161.558 130.932 161.093 130.803 160.687 130.544C160.284 130.286 159.966 129.916 159.733 129.436C159.502 128.953 159.387 128.378 159.387 127.71C159.387 127.048 159.5 126.466 159.724 125.963C159.951 125.46 160.268 125.068 160.674 124.787C161.081 124.506 161.554 124.365 162.093 124.365C162.494 124.365 162.826 124.436 163.091 124.578C163.355 124.717 163.566 124.891 163.725 125.098C163.887 125.305 164.014 125.507 164.105 125.703H164.181V124.455H164.923V131.17C164.923 131.724 164.805 132.18 164.569 132.538C164.333 132.896 164.012 133.161 163.606 133.331C163.2 133.504 162.738 133.591 162.221 133.591ZM162.17 130.237C162.591 130.237 162.95 130.136 163.248 129.935C163.547 129.73 163.775 129.437 163.934 129.057C164.093 128.676 164.173 128.223 164.173 127.697C164.173 127.186 164.095 126.733 163.939 126.338C163.782 125.94 163.555 125.628 163.257 125.401C162.961 125.17 162.599 125.055 162.17 125.055C161.733 125.055 161.363 125.173 161.062 125.409C160.761 125.645 160.534 125.963 160.38 126.364C160.227 126.761 160.15 127.206 160.15 127.697C160.15 128.197 160.228 128.639 160.385 129.023C160.541 129.403 160.77 129.702 161.071 129.918C161.372 130.131 161.738 130.237 162.17 130.237ZM167.536 131.064C167.369 131.064 167.224 131.004 167.102 130.885C166.982 130.763 166.923 130.618 166.923 130.45C166.923 130.28 166.982 130.135 167.102 130.016C167.224 129.896 167.369 129.837 167.536 129.837C167.707 129.837 167.852 129.896 167.971 130.016C168.09 130.135 168.15 130.28 168.15 130.45C168.15 130.561 168.121 130.663 168.065 130.757C168.011 130.851 167.937 130.926 167.843 130.983C167.752 131.037 167.65 131.064 167.536 131.064ZM170.759 131.064C170.591 131.064 170.446 131.004 170.324 130.885C170.205 130.763 170.145 130.618 170.145 130.45C170.145 130.28 170.205 130.135 170.324 130.016C170.446 129.896 170.591 129.837 170.759 129.837C170.929 129.837 171.074 129.896 171.194 130.016C171.313 130.135 171.373 130.28 171.373 130.45C171.373 130.561 171.344 130.663 171.287 130.757C171.233 130.851 171.159 130.926 171.066 130.983C170.975 131.037 170.873 131.064 170.759 131.064ZM173.982 131.064C173.814 131.064 173.669 131.004 173.547 130.885C173.428 130.763 173.368 130.618 173.368 130.45C173.368 130.28 173.428 130.135 173.547 130.016C173.669 129.896 173.814 129.837 173.982 129.837C174.152 129.837 174.297 129.896 174.416 130.016C174.536 130.135 174.595 130.28 174.595 130.45C174.595 130.561 174.567 130.663 174.51 130.757C174.456 130.851 174.382 130.926 174.288 130.983C174.197 131.037 174.095 131.064 173.982 131.064Z" fill="black"/>
<path d="M30.9175 202V184.545H33.551V199.733H41.4601V202H30.9175ZM44.2598 202V188.909H46.8081V202H44.2598ZM45.5468 186.889C45.1036 186.889 44.7229 186.741 44.4047 186.446C44.0922 186.145 43.936 185.787 43.936 185.372C43.936 184.952 44.0922 184.594 44.4047 184.298C44.7229 183.997 45.1036 183.847 45.5468 183.847C45.99 183.847 46.3678 183.997 46.6803 184.298C46.9985 184.594 47.1576 184.952 47.1576 185.372C47.1576 185.787 46.9985 186.145 46.6803 186.446C46.3678 186.741 45.99 186.889 45.5468 186.889ZM52.5802 197.56L52.5631 194.449H53.0063L58.2222 188.909H61.2733L55.3245 195.216H54.9239L52.5802 197.56ZM50.2364 202V184.545H52.7847V202H50.2364ZM58.5035 202L53.816 195.778L55.5716 193.997L61.6313 202H58.5035ZM68.6988 202.264C67.409 202.264 66.2982 201.989 65.3664 201.438C64.4402 200.881 63.7243 200.099 63.2187 199.094C62.7187 198.082 62.4687 196.898 62.4687 195.54C62.4687 194.199 62.7187 193.017 63.2187 191.994C63.7243 190.972 64.4289 190.173 65.3323 189.599C66.2414 189.026 67.3039 188.739 68.5198 188.739C69.2584 188.739 69.9743 188.861 70.6675 189.105C71.3607 189.349 71.9829 189.733 72.534 190.256C73.0851 190.778 73.5198 191.457 73.838 192.293C74.1562 193.122 74.3152 194.131 74.3152 195.318V196.222H63.909V194.312H71.8181C71.8181 193.642 71.6817 193.048 71.409 192.531C71.1363 192.009 70.7527 191.597 70.2584 191.295C69.7698 190.994 69.1959 190.844 68.5368 190.844C67.8209 190.844 67.1959 191.02 66.6618 191.372C66.1334 191.719 65.7243 192.173 65.4346 192.736C65.1505 193.293 65.0084 193.898 65.0084 194.551V196.043C65.0084 196.918 65.1618 197.662 65.4687 198.276C65.7811 198.889 66.2158 199.358 66.7726 199.682C67.3294 200 67.98 200.159 68.7243 200.159C69.2073 200.159 69.6476 200.091 70.0454 199.955C70.4431 199.812 70.7868 199.602 71.0766 199.324C71.3664 199.045 71.588 198.702 71.7414 198.293L74.1533 198.727C73.9601 199.437 73.6135 200.06 73.1135 200.594C72.6192 201.122 71.9971 201.534 71.2471 201.83C70.5027 202.119 69.6533 202.264 68.6988 202.264ZM82.0432 202.256C80.9864 202.256 80.0432 201.986 79.2137 201.446C78.3898 200.901 77.7421 200.125 77.2705 199.119C76.8046 198.108 76.5716 196.895 76.5716 195.48C76.5716 194.065 76.8074 192.855 77.279 191.849C77.7563 190.844 78.4097 190.074 79.2392 189.54C80.0688 189.006 81.0091 188.739 82.0603 188.739C82.8728 188.739 83.5262 188.875 84.0205 189.148C84.5205 189.415 84.9069 189.727 85.1796 190.085C85.458 190.443 85.6739 190.759 85.8273 191.031H85.9807V184.545H88.529V202H86.0404V199.963H85.8273C85.6739 200.241 85.4523 200.56 85.1625 200.918C84.8785 201.276 84.4864 201.588 83.9864 201.855C83.4864 202.122 82.8387 202.256 82.0432 202.256ZM82.6057 200.082C83.3387 200.082 83.958 199.889 84.4637 199.503C84.975 199.111 85.3614 198.568 85.6228 197.875C85.8898 197.182 86.0233 196.375 86.0233 195.455C86.0233 194.545 85.8927 193.75 85.6313 193.068C85.3699 192.386 84.9864 191.855 84.4807 191.474C83.975 191.094 83.35 190.903 82.6057 190.903C81.8387 190.903 81.1995 191.102 80.6881 191.5C80.1767 191.898 79.7904 192.44 79.529 193.128C79.2733 193.815 79.1455 194.591 79.1455 195.455C79.1455 196.33 79.2762 197.116 79.5375 197.815C79.7989 198.514 80.1853 199.068 80.6966 199.477C81.2137 199.881 81.85 200.082 82.6057 200.082ZM108.242 189.131C108.151 188.324 107.776 187.699 107.117 187.256C106.458 186.807 105.629 186.582 104.629 186.582C103.913 186.582 103.293 186.696 102.771 186.923C102.248 187.145 101.842 187.452 101.552 187.844C101.268 188.23 101.126 188.67 101.126 189.165C101.126 189.58 101.222 189.937 101.415 190.239C101.614 190.54 101.873 190.793 102.191 190.997C102.515 191.196 102.862 191.364 103.231 191.5C103.6 191.631 103.955 191.739 104.296 191.824L106.001 192.267C106.558 192.403 107.129 192.588 107.714 192.821C108.299 193.054 108.842 193.361 109.342 193.741C109.842 194.122 110.245 194.594 110.552 195.156C110.864 195.719 111.021 196.392 111.021 197.176C111.021 198.165 110.765 199.043 110.254 199.81C109.748 200.577 109.012 201.182 108.046 201.625C107.086 202.068 105.924 202.29 104.56 202.29C103.254 202.29 102.123 202.082 101.168 201.668C100.214 201.253 99.4665 200.665 98.9267 199.903C98.387 199.136 98.0887 198.227 98.0319 197.176H100.674C100.725 197.807 100.93 198.332 101.288 198.753C101.651 199.168 102.114 199.477 102.677 199.682C103.245 199.881 103.867 199.98 104.543 199.98C105.288 199.98 105.95 199.864 106.529 199.631C107.114 199.392 107.575 199.062 107.91 198.642C108.245 198.216 108.413 197.719 108.413 197.151C108.413 196.634 108.265 196.21 107.969 195.881C107.68 195.551 107.285 195.278 106.785 195.062C106.29 194.847 105.731 194.656 105.106 194.491L103.043 193.929C101.646 193.548 100.538 192.989 99.7194 192.25C98.9069 191.511 98.5006 190.534 98.5006 189.318C98.5006 188.312 98.7733 187.435 99.3188 186.685C99.8642 185.935 100.603 185.352 101.535 184.938C102.467 184.517 103.518 184.307 104.688 184.307C105.87 184.307 106.913 184.514 107.816 184.929C108.725 185.344 109.441 185.915 109.964 186.642C110.487 187.364 110.759 188.193 110.782 189.131H108.242ZM119.477 202.264C118.25 202.264 117.179 201.983 116.264 201.42C115.349 200.858 114.639 200.071 114.134 199.06C113.628 198.048 113.375 196.866 113.375 195.514C113.375 194.156 113.628 192.969 114.134 191.952C114.639 190.935 115.349 190.145 116.264 189.582C117.179 189.02 118.25 188.739 119.477 188.739C120.705 188.739 121.776 189.02 122.69 189.582C123.605 190.145 124.315 190.935 124.821 191.952C125.327 192.969 125.58 194.156 125.58 195.514C125.58 196.866 125.327 198.048 124.821 199.06C124.315 200.071 123.605 200.858 122.69 201.42C121.776 201.983 120.705 202.264 119.477 202.264ZM119.486 200.125C120.281 200.125 120.94 199.915 121.463 199.494C121.986 199.074 122.372 198.514 122.622 197.815C122.878 197.116 123.006 196.347 123.006 195.506C123.006 194.67 122.878 193.903 122.622 193.205C122.372 192.5 121.986 191.935 121.463 191.509C120.94 191.082 120.281 190.869 119.486 190.869C118.685 190.869 118.02 191.082 117.491 191.509C116.969 191.935 116.58 192.5 116.324 193.205C116.074 193.903 115.949 194.67 115.949 195.506C115.949 196.347 116.074 197.116 116.324 197.815C116.58 198.514 116.969 199.074 117.491 199.494C118.02 199.915 118.685 200.125 119.486 200.125ZM130.972 194.227V202H128.424V188.909H130.87V191.04H131.032C131.333 190.347 131.805 189.79 132.447 189.369C133.094 188.949 133.91 188.739 134.893 188.739C135.785 188.739 136.566 188.926 137.237 189.301C137.907 189.67 138.427 190.222 138.796 190.955C139.165 191.687 139.35 192.594 139.35 193.673V202H136.802V193.98C136.802 193.031 136.555 192.29 136.06 191.756C135.566 191.216 134.887 190.946 134.023 190.946C133.433 190.946 132.907 191.074 132.447 191.33C131.992 191.585 131.631 191.96 131.364 192.455C131.103 192.943 130.972 193.534 130.972 194.227ZM148.256 207.182C147.217 207.182 146.322 207.045 145.572 206.773C144.827 206.5 144.219 206.139 143.748 205.69C143.276 205.241 142.924 204.75 142.691 204.216L144.881 203.312C145.035 203.562 145.239 203.827 145.495 204.105C145.756 204.389 146.109 204.631 146.552 204.83C147.001 205.028 147.577 205.128 148.282 205.128C149.248 205.128 150.046 204.892 150.677 204.42C151.308 203.955 151.623 203.21 151.623 202.188V199.614H151.461C151.308 199.892 151.086 200.202 150.796 200.543C150.512 200.884 150.12 201.179 149.62 201.429C149.12 201.679 148.469 201.804 147.668 201.804C146.634 201.804 145.702 201.562 144.873 201.08C144.049 200.591 143.396 199.872 142.913 198.923C142.435 197.969 142.197 196.795 142.197 195.403C142.197 194.011 142.433 192.818 142.904 191.824C143.381 190.83 144.035 190.068 144.864 189.54C145.694 189.006 146.634 188.739 147.685 188.739C148.498 188.739 149.154 188.875 149.654 189.148C150.154 189.415 150.543 189.727 150.822 190.085C151.106 190.443 151.325 190.759 151.478 191.031H151.665V188.909H154.163V202.29C154.163 203.415 153.901 204.338 153.379 205.06C152.856 205.781 152.148 206.315 151.256 206.662C150.37 207.009 149.37 207.182 148.256 207.182ZM148.231 199.69C148.964 199.69 149.583 199.52 150.089 199.179C150.6 198.832 150.987 198.338 151.248 197.696C151.515 197.048 151.648 196.273 151.648 195.369C151.648 194.489 151.518 193.713 151.256 193.043C150.995 192.372 150.612 191.849 150.106 191.474C149.6 191.094 148.975 190.903 148.231 190.903C147.464 190.903 146.825 191.102 146.313 191.5C145.802 191.892 145.415 192.426 145.154 193.102C144.898 193.778 144.771 194.534 144.771 195.369C144.771 196.227 144.901 196.98 145.163 197.628C145.424 198.276 145.81 198.781 146.322 199.145C146.839 199.509 147.475 199.69 148.231 199.69ZM167.39 192.105L165.08 192.514C164.984 192.219 164.83 191.937 164.62 191.67C164.415 191.403 164.137 191.185 163.785 191.014C163.433 190.844 162.992 190.759 162.464 190.759C161.742 190.759 161.14 190.92 160.657 191.244C160.174 191.562 159.933 191.974 159.933 192.48C159.933 192.918 160.094 193.27 160.418 193.537C160.742 193.804 161.265 194.023 161.987 194.193L164.066 194.67C165.271 194.949 166.168 195.378 166.759 195.957C167.35 196.537 167.646 197.29 167.646 198.216C167.646 199 167.418 199.699 166.964 200.312C166.515 200.92 165.887 201.398 165.08 201.744C164.279 202.091 163.35 202.264 162.293 202.264C160.827 202.264 159.631 201.952 158.705 201.327C157.779 200.696 157.211 199.801 157.001 198.642L159.464 198.267C159.617 198.909 159.933 199.395 160.41 199.724C160.887 200.048 161.509 200.21 162.276 200.21C163.112 200.21 163.779 200.037 164.279 199.69C164.779 199.338 165.029 198.909 165.029 198.403C165.029 197.994 164.876 197.651 164.569 197.372C164.268 197.094 163.805 196.884 163.18 196.741L160.964 196.256C159.742 195.977 158.839 195.534 158.254 194.926C157.674 194.318 157.384 193.548 157.384 192.616C157.384 191.844 157.6 191.168 158.032 190.588C158.464 190.009 159.06 189.557 159.822 189.233C160.583 188.903 161.455 188.739 162.438 188.739C163.853 188.739 164.967 189.045 165.779 189.659C166.592 190.267 167.129 191.082 167.39 192.105Z" fill="black"/>
<path d="M250.438 189.131C250.347 188.324 249.972 187.699 249.312 187.256C248.653 186.807 247.824 186.582 246.824 186.582C246.108 186.582 245.489 186.696 244.966 186.923C244.443 187.145 244.037 187.452 243.747 187.844C243.463 188.23 243.321 188.67 243.321 189.165C243.321 189.58 243.418 189.937 243.611 190.239C243.81 190.54 244.068 190.793 244.386 190.997C244.71 191.196 245.057 191.364 245.426 191.5C245.795 191.631 246.151 191.739 246.491 191.824L248.196 192.267C248.753 192.403 249.324 192.588 249.909 192.821C250.494 193.054 251.037 193.361 251.537 193.741C252.037 194.122 252.44 194.594 252.747 195.156C253.06 195.719 253.216 196.392 253.216 197.176C253.216 198.165 252.96 199.043 252.449 199.81C251.943 200.577 251.207 201.182 250.241 201.625C249.281 202.068 248.119 202.29 246.756 202.29C245.449 202.29 244.318 202.082 243.364 201.668C242.409 201.253 241.662 200.665 241.122 199.903C240.582 199.136 240.284 198.227 240.227 197.176H242.869C242.92 197.807 243.125 198.332 243.483 198.753C243.847 199.168 244.31 199.477 244.872 199.682C245.44 199.881 246.062 199.98 246.739 199.98C247.483 199.98 248.145 199.864 248.724 199.631C249.31 199.392 249.77 199.062 250.105 198.642C250.44 198.216 250.608 197.719 250.608 197.151C250.608 196.634 250.46 196.21 250.165 195.881C249.875 195.551 249.48 195.278 248.98 195.062C248.486 194.847 247.926 194.656 247.301 194.491L245.239 193.929C243.841 193.548 242.733 192.989 241.915 192.25C241.102 191.511 240.696 190.534 240.696 189.318C240.696 188.312 240.969 187.435 241.514 186.685C242.06 185.935 242.798 185.352 243.73 184.938C244.662 184.517 245.713 184.307 246.884 184.307C248.065 184.307 249.108 184.514 250.011 184.929C250.92 185.344 251.636 185.915 252.159 186.642C252.682 187.364 252.955 188.193 252.977 189.131H250.438ZM261.8 202.264C260.511 202.264 259.4 201.989 258.468 201.438C257.542 200.881 256.826 200.099 256.32 199.094C255.82 198.082 255.57 196.898 255.57 195.54C255.57 194.199 255.82 193.017 256.32 191.994C256.826 190.972 257.531 190.173 258.434 189.599C259.343 189.026 260.406 188.739 261.621 188.739C262.36 188.739 263.076 188.861 263.769 189.105C264.462 189.349 265.085 189.733 265.636 190.256C266.187 190.778 266.621 191.457 266.94 192.293C267.258 193.122 267.417 194.131 267.417 195.318V196.222H257.011V194.312H264.92C264.92 193.642 264.783 193.048 264.511 192.531C264.238 192.009 263.854 191.597 263.36 191.295C262.871 190.994 262.298 190.844 261.638 190.844C260.923 190.844 260.298 191.02 259.763 191.372C259.235 191.719 258.826 192.173 258.536 192.736C258.252 193.293 258.11 193.898 258.11 194.551V196.043C258.11 196.918 258.263 197.662 258.57 198.276C258.883 198.889 259.317 199.358 259.874 199.682C260.431 200 261.082 200.159 261.826 200.159C262.309 200.159 262.749 200.091 263.147 199.955C263.545 199.812 263.888 199.602 264.178 199.324C264.468 199.045 264.69 198.702 264.843 198.293L267.255 198.727C267.062 199.437 266.715 200.06 266.215 200.594C265.721 201.122 265.099 201.534 264.349 201.83C263.604 202.119 262.755 202.264 261.8 202.264ZM275.886 202.264C274.597 202.264 273.486 201.989 272.554 201.438C271.628 200.881 270.912 200.099 270.406 199.094C269.906 198.082 269.656 196.898 269.656 195.54C269.656 194.199 269.906 193.017 270.406 191.994C270.912 190.972 271.616 190.173 272.52 189.599C273.429 189.026 274.491 188.739 275.707 188.739C276.446 188.739 277.162 188.861 277.855 189.105C278.548 189.349 279.17 189.733 279.722 190.256C280.273 190.778 280.707 191.457 281.026 192.293C281.344 193.122 281.503 194.131 281.503 195.318V196.222H271.097V194.312H279.006C279.006 193.642 278.869 193.048 278.597 192.531C278.324 192.009 277.94 191.597 277.446 191.295C276.957 190.994 276.384 190.844 275.724 190.844C275.009 190.844 274.384 191.02 273.849 191.372C273.321 191.719 272.912 192.173 272.622 192.736C272.338 193.293 272.196 193.898 272.196 194.551V196.043C272.196 196.918 272.349 197.662 272.656 198.276C272.969 198.889 273.403 199.358 273.96 199.682C274.517 200 275.168 200.159 275.912 200.159C276.395 200.159 276.835 200.091 277.233 199.955C277.631 199.812 277.974 199.602 278.264 199.324C278.554 199.045 278.776 198.702 278.929 198.293L281.341 198.727C281.148 199.437 280.801 200.06 280.301 200.594C279.807 201.122 279.185 201.534 278.435 201.83C277.69 202.119 276.841 202.264 275.886 202.264ZM294.491 202.29C293.662 202.29 292.912 202.136 292.241 201.83C291.571 201.517 291.04 201.065 290.648 200.474C290.261 199.884 290.068 199.159 290.068 198.301C290.068 197.562 290.21 196.955 290.494 196.477C290.778 196 291.162 195.622 291.645 195.344C292.128 195.065 292.668 194.855 293.264 194.713C293.861 194.571 294.469 194.463 295.088 194.389C295.872 194.298 296.509 194.224 296.997 194.168C297.486 194.105 297.841 194.006 298.062 193.869C298.284 193.733 298.395 193.511 298.395 193.205V193.145C298.395 192.401 298.185 191.824 297.764 191.415C297.349 191.006 296.73 190.801 295.906 190.801C295.048 190.801 294.372 190.991 293.878 191.372C293.389 191.747 293.051 192.165 292.864 192.625L290.469 192.08C290.753 191.284 291.168 190.642 291.713 190.153C292.264 189.659 292.898 189.301 293.614 189.08C294.33 188.852 295.082 188.739 295.872 188.739C296.395 188.739 296.949 188.801 297.534 188.926C298.125 189.045 298.676 189.267 299.188 189.591C299.705 189.915 300.128 190.378 300.457 190.98C300.787 191.577 300.952 192.352 300.952 193.307V202H298.463V200.21H298.361C298.196 200.54 297.949 200.864 297.619 201.182C297.29 201.5 296.866 201.764 296.349 201.974C295.832 202.185 295.213 202.29 294.491 202.29ZM295.045 200.244C295.75 200.244 296.352 200.105 296.852 199.827C297.358 199.548 297.741 199.185 298.003 198.736C298.27 198.281 298.403 197.795 298.403 197.278V195.591C298.313 195.682 298.136 195.767 297.875 195.847C297.619 195.92 297.327 195.986 296.997 196.043C296.668 196.094 296.347 196.142 296.034 196.188C295.722 196.227 295.46 196.261 295.25 196.29C294.756 196.352 294.304 196.457 293.895 196.605C293.491 196.753 293.168 196.966 292.923 197.244C292.685 197.517 292.565 197.881 292.565 198.335C292.565 198.966 292.798 199.443 293.264 199.767C293.73 200.085 294.324 200.244 295.045 200.244ZM306.894 184.545V202H304.346V184.545H306.894ZM312.871 184.545V202H310.322V184.545H312.871Z" fill="black"/>
<path d="M330 184L344 193L330 202V184Z" stroke="black" stroke-width="2" stroke-linecap="round" stroke-linejoin="round"/>
<path d="M250.438 403.131C250.347 402.324 249.972 401.699 249.312 401.256C248.653 400.807 247.824 400.582 246.824 400.582C246.108 400.582 245.489 400.696 244.966 400.923C244.443 401.145 244.037 401.452 243.747 401.844C243.463 402.23 243.321 402.67 243.321 403.165C243.321 403.58 243.418 403.937 243.611 404.239C243.81 404.54 244.068 404.793 244.386 404.997C244.71 405.196 245.057 405.364 245.426 405.5C245.795 405.631 246.151 405.739 246.491 405.824L248.196 406.267C248.753 406.403 249.324 406.588 249.909 406.821C250.494 407.054 251.037 407.361 251.537 407.741C252.037 408.122 252.44 408.594 252.747 409.156C253.06 409.719 253.216 410.392 253.216 411.176C253.216 412.165 252.96 413.043 252.449 413.81C251.943 414.577 251.207 415.182 250.241 415.625C249.281 416.068 248.119 416.29 246.756 416.29C245.449 416.29 244.318 416.082 243.364 415.668C242.409 415.253 241.662 414.665 241.122 413.903C240.582 413.136 240.284 412.227 240.227 411.176H242.869C242.92 411.807 243.125 412.332 243.483 412.753C243.847 413.168 244.31 413.477 244.872 413.682C245.44 413.881 246.062 413.98 246.739 413.98C247.483 413.98 248.145 413.864 248.724 413.631C249.31 413.392 249.77 413.062 250.105 412.642C250.44 412.216 250.608 411.719 250.608 411.151C250.608 410.634 250.46 410.21 250.165 409.881C249.875 409.551 249.48 409.278 248.98 409.062C248.486 408.847 247.926 408.656 247.301 408.491L245.239 407.929C243.841 407.548 242.733 406.989 241.915 406.25C241.102 405.511 240.696 404.534 240.696 403.318C240.696 402.312 240.969 401.435 241.514 400.685C242.06 399.935 242.798 399.352 243.73 398.938C244.662 398.517 245.713 398.307 246.884 398.307C248.065 398.307 249.108 398.514 250.011 398.929C250.92 399.344 251.636 399.915 252.159 400.642C252.682 401.364 252.955 402.193 252.977 403.131H250.438ZM261.8 416.264C260.511 416.264 259.4 415.989 258.468 415.438C257.542 414.881 256.826 414.099 256.32 413.094C255.82 412.082 255.57 410.898 255.57 409.54C255.57 408.199 255.82 407.017 256.32 405.994C256.826 404.972 257.531 404.173 258.434 403.599C259.343 403.026 260.406 402.739 261.621 402.739C262.36 402.739 263.076 402.861 263.769 403.105C264.462 403.349 265.085 403.733 265.636 404.256C266.187 404.778 266.621 405.457 266.94 406.293C267.258 407.122 267.417 408.131 267.417 409.318V410.222H257.011V408.312H264.92C264.92 407.642 264.783 407.048 264.511 406.531C264.238 406.009 263.854 405.597 263.36 405.295C262.871 404.994 262.298 404.844 261.638 404.844C260.923 404.844 260.298 405.02 259.763 405.372C259.235 405.719 258.826 406.173 258.536 406.736C258.252 407.293 258.11 407.898 258.11 408.551V410.043C258.11 410.918 258.263 411.662 258.57 412.276C258.883 412.889 259.317 413.358 259.874 413.682C260.431 414 261.082 414.159 261.826 414.159C262.309 414.159 262.749 414.091 263.147 413.955C263.545 413.812 263.888 413.602 264.178 413.324C264.468 413.045 264.69 412.702 264.843 412.293L267.255 412.727C267.062 413.437 266.715 414.06 266.215 414.594C265.721 415.122 265.099 415.534 264.349 415.83C263.604 416.119 262.755 416.264 261.8 416.264ZM275.886 416.264C274.597 416.264 273.486 415.989 272.554 415.438C271.628 414.881 270.912 414.099 270.406 413.094C269.906 412.082 269.656 410.898 269.656 409.54C269.656 408.199 269.906 407.017 270.406 405.994C270.912 404.972 271.616 404.173 272.52 403.599C273.429 403.026 274.491 402.739 275.707 402.739C276.446 402.739 277.162 402.861 277.855 403.105C278.548 403.349 279.17 403.733 279.722 404.256C280.273 404.778 280.707 405.457 281.026 406.293C281.344 407.122 281.503 408.131 281.503 409.318V410.222H271.097V408.312H279.006C279.006 407.642 278.869 407.048 278.597 406.531C278.324 406.009 277.94 405.597 277.446 405.295C276.957 404.994 276.384 404.844 275.724 404.844C275.009 404.844 274.384 405.02 273.849 405.372C273.321 405.719 272.912 406.173 272.622 406.736C272.338 407.293 272.196 407.898 272.196 408.551V410.043C272.196 410.918 272.349 411.662 272.656 412.276C272.969 412.889 273.403 413.358 273.96 413.682C274.517 414 275.168 414.159 275.912 414.159C276.395 414.159 276.835 414.091 277.233 413.955C277.631 413.812 277.974 413.602 278.264 413.324C278.554 413.045 278.776 412.702 278.929 412.293L281.341 412.727C281.148 413.437 280.801 414.06 280.301 414.594C279.807 415.122 279.185 415.534 278.435 415.83C277.69 416.119 276.841 416.264 275.886 416.264ZM294.491 416.29C293.662 416.29 292.912 416.136 292.241 415.83C291.571 415.517 291.04 415.065 290.648 414.474C290.261 413.884 290.068 413.159 290.068 412.301C290.068 411.562 290.21 410.955 290.494 410.477C290.778 410 291.162 409.622 291.645 409.344C292.128 409.065 292.668 408.855 293.264 408.713C293.861 408.571 294.469 408.463 295.088 408.389C295.872 408.298 296.509 408.224 296.997 408.168C297.486 408.105 297.841 408.006 298.062 407.869C298.284 407.733 298.395 407.511 298.395 407.205V407.145C298.395 406.401 298.185 405.824 297.764 405.415C297.349 405.006 296.73 404.801 295.906 404.801C295.048 404.801 294.372 404.991 293.878 405.372C293.389 405.747 293.051 406.165 292.864 406.625L290.469 406.08C290.753 405.284 291.168 404.642 291.713 404.153C292.264 403.659 292.898 403.301 293.614 403.08C294.33 402.852 295.082 402.739 295.872 402.739C296.395 402.739 296.949 402.801 297.534 402.926C298.125 403.045 298.676 403.267 299.188 403.591C299.705 403.915 300.128 404.378 300.457 404.98C300.787 405.577 300.952 406.352 300.952 407.307V416H298.463V414.21H298.361C298.196 414.54 297.949 414.864 297.619 415.182C297.29 415.5 296.866 415.764 296.349 415.974C295.832 416.185 295.213 416.29 294.491 416.29ZM295.045 414.244C295.75 414.244 296.352 414.105 296.852 413.827C297.358 413.548 297.741 413.185 298.003 412.736C298.27 412.281 298.403 411.795 298.403 411.278V409.591C298.313 409.682 298.136 409.767 297.875 409.847C297.619 409.92 297.327 409.986 296.997 410.043C296.668 410.094 296.347 410.142 296.034 410.188C295.722 410.227 295.46 410.261 295.25 410.29C294.756 410.352 294.304 410.457 293.895 410.605C293.491 410.753 293.168 410.966 292.923 411.244C292.685 411.517 292.565 411.881 292.565 412.335C292.565 412.966 292.798 413.443 293.264 413.767C293.73 414.085 294.324 414.244 295.045 414.244ZM306.894 398.545V416H304.346V398.545H306.894ZM312.871 398.545V416H310.322V398.545H312.871Z" fill="black"/>
<path d="M330 398L344 407L330 416V398Z" stroke="black" stroke-width="2" stroke-linecap="round" stroke-linejoin="round"/>
<path d="M91 240.5H37C31.7533 240.5 27.5 244.753 27.5 250V292C27.5 297.247 31.7533 301.5 37 301.5H91C96.2467 301.5 100.5 297.247 100.5 292V250C100.5 244.753 96.2467 240.5 91 240.5Z" fill="#D9D9D9" stroke="black"/>
<path d="M29 322H100" stroke="black" stroke-width="4" stroke-dasharray="2 2"/>
<path d="M28 351H99" stroke="black" stroke-width="4" stroke-dasharray="2 2"/>
<path d="M28 335H99" stroke="black" stroke-width="4" stroke-dasharray="2 2"/>
<path d="M91 240.5H37C31.7533 240.5 27.5 244.753 27.5 250V292C27.5 297.247 31.7533 301.5 37 301.5H91C96.2467 301.5 100.5 297.247 100.5 292V250C100.5 244.753 96.2467 240.5 91 240.5Z" fill="#D9D9D9" stroke="black"/>
<path d="M91 445.5H37C31.7533 445.5 27.5 449.753 27.5 455V497C27.5 502.247 31.7533 506.5 37 506.5H91C96.2467 506.5 100.5 502.247 100.5 497V455C100.5 449.753 96.2467 445.5 91 445.5Z" fill="#D9D9D9" stroke="black"/>
<path d="M306 467.5H383" stroke="black"/>
<path d="M306 483.5H383" stroke="black"/>
<path d="M306 474.5H383" stroke="black"/>
<path d="M306 467.5H383" stroke="black"/>
<path d="M306 483.5H383" stroke="black"/>
<path d="M306 474.5H383" stroke="black"/>
<path d="M278 445.5H224C218.753 445.5 214.5 449.753 214.5 455V497C214.5 502.247 218.753 506.5 224 506.5H278C283.247 506.5 287.5 502.247 287.5 497V455C287.5 449.753 283.247 445.5 278 445.5Z" fill="#D9D9D9" stroke="black"/>
<path d="M29 322H100" stroke="black" stroke-width="4" stroke-dasharray="2 2"/>
<path d="M28 351H99" stroke="black" stroke-width="4" stroke-dasharray="2 2"/>
<path d="M28 335H99" stroke="black" stroke-width="4" stroke-dasharray="2 2"/>
<path d="M379 238.5H325C319.753 238.5 315.5 242.753 315.5 248V290C315.5 295.247 319.753 299.5 325 299.5H379C384.247 299.5 388.5 295.247 388.5 290V248C388.5 242.753 384.247 238.5 379 238.5Z" fill="#D9D9D9" stroke="black"/>
<path d="M317 320H388" stroke="black" stroke-width="4" stroke-dasharray="2 2"/>
<path d="M316 349H387" stroke="black" stroke-width="4" stroke-dasharray="2 2"/>
<path d="M316 333H387" stroke="black" stroke-width="4" stroke-dasharray="2 2"/>
<path d="M379 238.5H325C319.753 238.5 315.5 242.753 315.5 248V290C315.5 295.247 319.753 299.5 325 299.5H379C384.247 299.5 388.5 295.247 388.5 290V248C388.5 242.753 384.247 238.5 379 238.5Z" fill="#D9D9D9" stroke="black"/>
<path d="M317 320H388" stroke="black" stroke-width="4" stroke-dasharray="2 2"/>
<path d="M316 349H387" stroke="black" stroke-width="4" stroke-dasharray="2 2"/>
<path d="M316 333H387" stroke="black" stroke-width="4" stroke-dasharray="2 2"/>
<path d="M281 238.5H227C221.753 238.5 217.5 242.753 217.5 248V290C217.5 295.247 221.753 299.5 227 299.5H281C286.247 299.5 290.5 295.247 290.5 290V248C290.5 242.753 286.247 238.5 281 238.5Z" fill="#D9D9D9" stroke="black"/>
<path d="M219 320H290" stroke="black" stroke-width="4" stroke-dasharray="2 2"/>
<path d="M218 349H289" stroke="black" stroke-width="4" stroke-dasharray="2 2"/>
<path d="M218 333H289" stroke="black" stroke-width="4" stroke-dasharray="2 2"/>
<path d="M281 238.5H227C221.753 238.5 217.5 242.753 217.5 248V290C217.5 295.247 221.753 299.5 227 299.5H281C286.247 299.5 290.5 295.247 290.5 290V248C290.5 242.753 286.247 238.5 281 238.5Z" fill="#D9D9D9" stroke="black"/>
<path d="M219 320H290" stroke="black" stroke-width="4" stroke-dasharray="2 2"/>
<path d="M218 349H289" stroke="black" stroke-width="4" stroke-dasharray="2 2"/>
<path d="M218 333H289" stroke="black" stroke-width="4" stroke-dasharray="2 2"/>
<path d="M186 240.5H132C126.753 240.5 122.5 244.753 122.5 250V292C122.5 297.247 126.753 301.5 132 301.5H186C191.247 301.5 195.5 297.247 195.5 292V250C195.5 244.753 191.247 240.5 186 240.5Z" fill="#D9D9D9" stroke="black"/>
<path d="M124 322H195" stroke="black" stroke-width="4" stroke-dasharray="2 2"/>
<path d="M123 351H194" stroke="black" stroke-width="4" stroke-dasharray="2 2"/>
<path d="M123 335H194" stroke="black" stroke-width="4" stroke-dasharray="2 2"/>
<path d="M25.0566 400.812V398.545H38.5651V400.812H33.1191V416H30.4941V400.812H25.0566ZM39.9863 416V402.909H42.4494V404.989H42.5857C42.8244 404.284 43.2448 403.73 43.8471 403.327C44.4551 402.918 45.1426 402.713 45.9096 402.713C46.0687 402.713 46.2562 402.719 46.4721 402.73C46.6937 402.741 46.867 402.756 46.992 402.773V405.21C46.8897 405.182 46.7079 405.151 46.4465 405.116C46.1852 405.077 45.9238 405.057 45.6624 405.057C45.0602 405.057 44.5232 405.185 44.0516 405.44C43.5857 405.69 43.2164 406.04 42.9437 406.489C42.671 406.932 42.5346 407.437 42.5346 408.006V416H39.9863ZM54.3705 416.264C53.0808 416.264 51.97 415.989 51.0382 415.438C50.112 414.881 49.3961 414.099 48.8904 413.094C48.3904 412.082 48.1404 410.898 48.1404 409.54C48.1404 408.199 48.3904 407.017 48.8904 405.994C49.3961 404.972 50.1007 404.173 51.0041 403.599C51.9132 403.026 52.9757 402.739 54.1916 402.739C54.9302 402.739 55.6461 402.861 56.3393 403.105C57.0325 403.349 57.6546 403.733 58.2058 404.256C58.7569 404.778 59.1916 405.457 59.5097 406.293C59.8279 407.122 59.987 408.131 59.987 409.318V410.222H49.5808V408.312H57.4899C57.4899 407.642 57.3535 407.048 57.0808 406.531C56.808 406.009 56.4245 405.597 55.9302 405.295C55.4416 404.994 54.8677 404.844 54.2086 404.844C53.4927 404.844 52.8677 405.02 52.3336 405.372C51.8052 405.719 51.3961 406.173 51.1063 406.736C50.8222 407.293 50.6802 407.898 50.6802 408.551V410.043C50.6802 410.918 50.8336 411.662 51.1404 412.276C51.4529 412.889 51.8876 413.358 52.4444 413.682C53.0012 414 53.6518 414.159 54.3961 414.159C54.8791 414.159 55.3194 414.091 55.7171 413.955C56.1149 413.812 56.4586 413.602 56.7484 413.324C57.0382 413.045 57.2597 412.702 57.4132 412.293L59.8251 412.727C59.6319 413.437 59.2853 414.06 58.7853 414.594C58.291 415.122 57.6688 415.534 56.9188 415.83C56.1745 416.119 55.3251 416.264 54.3705 416.264ZM65.3627 408.227V416H62.8144V402.909H65.2605V405.04H65.4224C65.7235 404.347 66.1951 403.79 66.8372 403.369C67.4849 402.949 68.3002 402.739 69.2832 402.739C70.1752 402.739 70.9565 402.926 71.6269 403.301C72.2974 403.67 72.8173 404.222 73.1866 404.955C73.5559 405.687 73.7406 406.594 73.7406 407.673V416H71.1923V407.98C71.1923 407.031 70.9451 406.29 70.4508 405.756C69.9565 405.216 69.2775 404.946 68.4139 404.946C67.823 404.946 67.2974 405.074 66.8372 405.33C66.3826 405.585 66.0218 405.96 65.7548 406.455C65.4934 406.943 65.3627 407.534 65.3627 408.227ZM82.0587 416.256C81.0019 416.256 80.0587 415.986 79.2292 415.446C78.4053 414.901 77.7576 414.125 77.286 413.119C76.8201 412.108 76.5872 410.895 76.5872 409.48C76.5872 408.065 76.823 406.855 77.2945 405.849C77.7718 404.844 78.4252 404.074 79.2548 403.54C80.0843 403.006 81.0247 402.739 82.0758 402.739C82.8883 402.739 83.5417 402.875 84.036 403.148C84.536 403.415 84.9224 403.727 85.1951 404.085C85.4735 404.443 85.6894 404.759 85.8428 405.031H85.9962V398.545H88.5445V416H86.0559V413.963H85.8428C85.6894 414.241 85.4678 414.56 85.1781 414.918C84.894 415.276 84.5019 415.588 84.0019 415.855C83.5019 416.122 82.8542 416.256 82.0587 416.256ZM82.6212 414.082C83.3542 414.082 83.9735 413.889 84.4792 413.503C84.9906 413.111 85.3769 412.568 85.6383 411.875C85.9053 411.182 86.0389 410.375 86.0389 409.455C86.0389 408.545 85.9082 407.75 85.6468 407.068C85.3855 406.386 85.0019 405.855 84.4962 405.474C83.9906 405.094 83.3656 404.903 82.6212 404.903C81.8542 404.903 81.215 405.102 80.7036 405.5C80.1923 405.898 79.8059 406.44 79.5445 407.128C79.2889 407.815 79.161 408.591 79.161 409.455C79.161 410.33 79.2917 411.116 79.5531 411.815C79.8144 412.514 80.2008 413.068 80.7122 413.477C81.2292 413.881 81.8656 414.082 82.6212 414.082ZM92.1816 416V402.909H94.7299V416H92.1816ZM93.4686 400.889C93.0254 400.889 92.6447 400.741 92.3265 400.446C92.014 400.145 91.8578 399.787 91.8578 399.372C91.8578 398.952 92.014 398.594 92.3265 398.298C92.6447 397.997 93.0254 397.847 93.4686 397.847C93.9117 397.847 94.2896 397.997 94.6021 398.298C94.9203 398.594 95.0793 398.952 95.0793 399.372C95.0793 399.787 94.9203 400.145 94.6021 400.446C94.2896 400.741 93.9117 400.889 93.4686 400.889ZM100.707 408.227V416H98.1582V402.909H100.604V405.04H100.766C101.067 404.347 101.539 403.79 102.181 403.369C102.829 402.949 103.644 402.739 104.627 402.739C105.519 402.739 106.3 402.926 106.971 403.301C107.641 403.67 108.161 404.222 108.531 404.955C108.9 405.687 109.085 406.594 109.085 407.673V416H106.536V407.98C106.536 407.031 106.289 406.29 105.795 405.756C105.3 405.216 104.621 404.946 103.758 404.946C103.167 404.946 102.641 405.074 102.181 405.33C101.727 405.585 101.366 405.96 101.099 406.455C100.837 406.943 100.707 407.534 100.707 408.227ZM117.991 421.182C116.951 421.182 116.056 421.045 115.306 420.773C114.562 420.5 113.954 420.139 113.482 419.69C113.011 419.241 112.658 418.75 112.425 418.216L114.616 417.312C114.769 417.562 114.974 417.827 115.229 418.105C115.491 418.389 115.843 418.631 116.286 418.83C116.735 419.028 117.312 419.128 118.016 419.128C118.982 419.128 119.781 418.892 120.411 418.42C121.042 417.955 121.357 417.21 121.357 416.188V413.614H121.195C121.042 413.892 120.82 414.202 120.531 414.543C120.246 414.884 119.854 415.179 119.354 415.429C118.854 415.679 118.204 415.804 117.403 415.804C116.369 415.804 115.437 415.562 114.607 415.08C113.783 414.591 113.13 413.872 112.647 412.923C112.17 411.969 111.931 410.795 111.931 409.403C111.931 408.011 112.167 406.818 112.638 405.824C113.116 404.83 113.769 404.068 114.599 403.54C115.428 403.006 116.369 402.739 117.42 402.739C118.232 402.739 118.888 402.875 119.388 403.148C119.888 403.415 120.278 403.727 120.556 404.085C120.84 404.443 121.059 404.759 121.212 405.031H121.4V402.909H123.897V416.29C123.897 417.415 123.636 418.338 123.113 419.06C122.59 419.781 121.883 420.315 120.991 420.662C120.104 421.009 119.104 421.182 117.991 421.182ZM117.965 413.69C118.698 413.69 119.317 413.52 119.823 413.179C120.335 412.832 120.721 412.338 120.982 411.696C121.249 411.048 121.383 410.273 121.383 409.369C121.383 408.489 121.252 407.713 120.991 407.043C120.729 406.372 120.346 405.849 119.84 405.474C119.335 405.094 118.71 404.903 117.965 404.903C117.198 404.903 116.559 405.102 116.048 405.5C115.536 405.892 115.15 406.426 114.888 407.102C114.633 407.778 114.505 408.534 114.505 409.369C114.505 410.227 114.636 410.98 114.897 411.628C115.158 412.276 115.545 412.781 116.056 413.145C116.573 413.509 117.21 413.69 117.965 413.69ZM128.994 416.162C128.528 416.162 128.127 415.997 127.792 415.668C127.457 415.332 127.289 414.929 127.289 414.457C127.289 413.991 127.457 413.594 127.792 413.264C128.127 412.929 128.528 412.761 128.994 412.761C129.46 412.761 129.86 412.929 130.195 413.264C130.531 413.594 130.698 413.991 130.698 414.457C130.698 414.77 130.619 415.057 130.46 415.318C130.306 415.574 130.102 415.778 129.846 415.932C129.59 416.085 129.306 416.162 128.994 416.162ZM135.79 416.162C135.325 416.162 134.924 415.997 134.589 415.668C134.254 415.332 134.086 414.929 134.086 414.457C134.086 413.991 134.254 413.594 134.589 413.264C134.924 412.929 135.325 412.761 135.79 412.761C136.256 412.761 136.657 412.929 136.992 413.264C137.327 413.594 137.495 413.991 137.495 414.457C137.495 414.77 137.415 415.057 137.256 415.318C137.103 415.574 136.898 415.778 136.643 415.932C136.387 416.085 136.103 416.162 135.79 416.162ZM142.587 416.162C142.121 416.162 141.721 415.997 141.386 415.668C141.05 415.332 140.883 414.929 140.883 414.457C140.883 413.991 141.05 413.594 141.386 413.264C141.721 412.929 142.121 412.761 142.587 412.761C143.053 412.761 143.454 412.929 143.789 413.264C144.124 413.594 144.292 413.991 144.292 414.457C144.292 414.77 144.212 415.057 144.053 415.318C143.9 415.574 143.695 415.778 143.44 415.932C143.184 416.085 142.9 416.162 142.587 416.162Z" fill="black"/>
<path d="M364 569.5H39C33.7533 569.5 29.5 573.753 29.5 579V645C29.5 650.247 33.7533 654.5 39 654.5H364C369.247 654.5 373.5 650.247 373.5 645V579C373.5 573.753 369.247 569.5 364 569.5Z" fill="#D9D9D9" stroke="black"/>
<path d="M42.3382 533.455V548H40.3211L32.9277 537.332H32.7927V548H30.5981V533.455H32.6294L40.0299 544.136H40.1649V533.455H42.3382ZM49.9642 548.22C48.9415 548.22 48.049 547.986 47.2867 547.517C46.5244 547.048 45.9325 546.393 45.5111 545.55C45.0897 544.707 44.879 543.722 44.879 542.595C44.879 541.464 45.0897 540.474 45.5111 539.626C45.9325 538.779 46.5244 538.121 47.2867 537.652C48.049 537.183 48.9415 536.949 49.9642 536.949C50.987 536.949 51.8795 537.183 52.6418 537.652C53.4041 538.121 53.996 538.779 54.4174 539.626C54.8388 540.474 55.0495 541.464 55.0495 542.595C55.0495 543.722 54.8388 544.707 54.4174 545.55C53.996 546.393 53.4041 547.048 52.6418 547.517C51.8795 547.986 50.987 548.22 49.9642 548.22ZM49.9713 546.438C50.6342 546.438 51.1835 546.262 51.6191 545.912C52.0547 545.562 52.3766 545.095 52.585 544.513C52.798 543.93 52.9046 543.289 52.9046 542.588C52.9046 541.892 52.798 541.253 52.585 540.67C52.3766 540.083 52.0547 539.612 51.6191 539.257C51.1835 538.902 50.6342 538.724 49.9713 538.724C49.3037 538.724 48.7497 538.902 48.3094 539.257C47.8738 539.612 47.5495 540.083 47.3364 540.67C47.1281 541.253 47.0239 541.892 47.0239 542.588C47.0239 543.289 47.1281 543.93 47.3364 544.513C47.5495 545.095 47.8738 545.562 48.3094 545.912C48.7497 546.262 49.3037 546.438 49.9713 546.438ZM59.4529 548L56.2426 537.091H58.4372L60.575 545.102H60.6816L62.8264 537.091H65.0211L67.1517 545.067H67.2583L69.3818 537.091H71.5764L68.3733 548H66.2071L63.9912 540.124H63.8279L61.612 548H59.4529ZM79.0551 548V533.455H84.2398C85.3714 533.455 86.3089 533.661 87.0523 534.072C87.7957 534.484 88.352 535.048 88.7213 535.763C89.0907 536.473 89.2753 537.273 89.2753 538.163C89.2753 539.058 89.0883 539.863 88.7142 540.578C88.3449 541.288 87.7862 541.852 87.0381 542.268C86.2947 542.68 85.3596 542.886 84.2327 542.886H80.6674V541.026H84.0338C84.7488 541.026 85.3288 540.902 85.7739 540.656C86.219 540.405 86.5457 540.064 86.754 539.634C86.9623 539.203 87.0665 538.713 87.0665 538.163C87.0665 537.614 86.9623 537.126 86.754 536.7C86.5457 536.274 86.2166 535.94 85.7668 535.699C85.3217 535.457 84.7346 535.337 84.0054 535.337H81.2497V548H79.0551ZM93.8012 533.455V548H91.6777V533.455H93.8012ZM99.8328 548.241C99.1416 548.241 98.5166 548.114 97.9578 547.858C97.3991 547.598 96.9564 547.221 96.6297 546.729C96.3077 546.236 96.1468 545.633 96.1468 544.918C96.1468 544.302 96.2651 543.795 96.5019 543.398C96.7386 543 97.0583 542.685 97.4607 542.453C97.8631 542.221 98.313 542.046 98.8101 541.928C99.3073 541.809 99.8139 541.719 100.33 541.658C100.983 541.582 101.514 541.52 101.921 541.473C102.328 541.421 102.624 541.338 102.809 541.224C102.993 541.111 103.086 540.926 103.086 540.67V540.621C103.086 540 102.91 539.52 102.56 539.179C102.214 538.838 101.698 538.668 101.012 538.668C100.297 538.668 99.7335 538.826 99.3215 539.143C98.9143 539.456 98.6326 539.804 98.4763 540.188L96.4806 539.733C96.7173 539.07 97.063 538.535 97.5175 538.128C97.9768 537.716 98.5047 537.418 99.1013 537.233C99.6979 537.044 100.325 536.949 100.983 536.949C101.419 536.949 101.881 537.001 102.368 537.105C102.861 537.205 103.32 537.389 103.746 537.659C104.177 537.929 104.53 538.315 104.804 538.817C105.079 539.314 105.216 539.96 105.216 540.756V548H103.142V546.509H103.057C102.92 546.783 102.714 547.053 102.439 547.318C102.165 547.583 101.812 547.804 101.381 547.979C100.95 548.154 100.434 548.241 99.8328 548.241ZM100.294 546.537C100.882 546.537 101.383 546.421 101.8 546.189C102.221 545.957 102.541 545.654 102.759 545.28C102.981 544.901 103.093 544.496 103.093 544.065V542.659C103.017 542.735 102.87 542.806 102.652 542.872C102.439 542.934 102.195 542.988 101.921 543.036C101.646 543.078 101.379 543.118 101.118 543.156C100.858 543.189 100.64 543.218 100.465 543.241C100.053 543.294 99.6766 543.381 99.3357 543.504C98.9995 543.627 98.7296 543.805 98.526 544.037C98.3272 544.264 98.2277 544.567 98.2277 544.946C98.2277 545.472 98.4219 545.869 98.8101 546.139C99.1984 546.404 99.6932 546.537 100.294 546.537ZM108.996 552.091C108.679 552.091 108.39 552.065 108.13 552.013C107.87 551.965 107.675 551.913 107.548 551.857L108.059 550.116C108.447 550.221 108.793 550.266 109.096 550.251C109.399 550.237 109.666 550.124 109.898 549.911C110.135 549.697 110.344 549.349 110.523 548.866L110.786 548.142L106.795 537.091H109.067L111.83 545.557H111.944L114.707 537.091H116.987L112.491 549.456C112.282 550.024 112.017 550.505 111.695 550.898C111.373 551.295 110.99 551.594 110.545 551.793C110.1 551.991 109.584 552.091 108.996 552.091ZM118.982 548V537.091H121.106V548H118.982ZM120.055 535.408C119.685 535.408 119.368 535.285 119.103 535.038C118.843 534.787 118.712 534.489 118.712 534.143C118.712 533.793 118.843 533.495 119.103 533.249C119.368 532.998 119.685 532.872 120.055 532.872C120.424 532.872 120.739 532.998 120.999 533.249C121.264 533.495 121.397 533.793 121.397 534.143C121.397 534.489 121.264 534.787 120.999 535.038C120.739 535.285 120.424 535.408 120.055 535.408ZM126.086 541.523V548H123.963V537.091H126.001V538.866H126.136C126.387 538.289 126.78 537.825 127.315 537.474C127.855 537.124 128.534 536.949 129.353 536.949C130.097 536.949 130.748 537.105 131.306 537.418C131.865 537.725 132.298 538.185 132.606 538.795C132.914 539.406 133.068 540.161 133.068 541.061V548H130.944V541.317C130.944 540.526 130.738 539.908 130.326 539.463C129.914 539.013 129.349 538.788 128.629 538.788C128.136 538.788 127.699 538.895 127.315 539.108C126.936 539.321 126.636 539.634 126.413 540.045C126.195 540.453 126.086 540.945 126.086 541.523ZM140.49 552.318C139.623 552.318 138.877 552.205 138.252 551.977C137.632 551.75 137.126 551.449 136.733 551.075C136.34 550.701 136.046 550.292 135.852 549.847L137.677 549.094C137.805 549.302 137.975 549.522 138.189 549.754C138.406 549.991 138.7 550.192 139.069 550.358C139.443 550.524 139.924 550.607 140.511 550.607C141.316 550.607 141.981 550.41 142.507 550.017C143.032 549.629 143.295 549.009 143.295 548.156V546.011H143.16C143.032 546.243 142.848 546.501 142.606 546.786C142.369 547.07 142.043 547.316 141.626 547.524C141.209 547.732 140.667 547.837 140 547.837C139.138 547.837 138.361 547.635 137.67 547.233C136.984 546.826 136.439 546.227 136.037 545.436C135.639 544.641 135.44 543.663 135.44 542.503C135.44 541.343 135.636 540.348 136.029 539.52C136.427 538.691 136.972 538.057 137.663 537.616C138.354 537.171 139.138 536.949 140.014 536.949C140.691 536.949 141.238 537.062 141.654 537.29C142.071 537.512 142.395 537.773 142.627 538.071C142.864 538.369 143.047 538.632 143.174 538.859H143.331V537.091H145.412V548.241C145.412 549.179 145.194 549.948 144.758 550.55C144.323 551.151 143.733 551.596 142.99 551.885C142.251 552.174 141.418 552.318 140.49 552.318ZM140.468 546.075C141.079 546.075 141.595 545.933 142.017 545.649C142.443 545.36 142.765 544.948 142.983 544.413C143.205 543.874 143.316 543.227 143.316 542.474C143.316 541.741 143.208 541.094 142.99 540.536C142.772 539.977 142.452 539.541 142.031 539.229C141.609 538.911 141.089 538.753 140.468 538.753C139.829 538.753 139.297 538.919 138.87 539.25C138.444 539.577 138.122 540.022 137.904 540.585C137.691 541.149 137.585 541.778 137.585 542.474C137.585 543.189 137.694 543.817 137.912 544.357C138.129 544.896 138.451 545.318 138.877 545.621C139.308 545.924 139.839 546.075 140.468 546.075ZM149.659 548.135C149.27 548.135 148.937 547.998 148.657 547.723C148.378 547.444 148.238 547.107 148.238 546.714C148.238 546.326 148.378 545.995 148.657 545.72C148.937 545.441 149.27 545.301 149.659 545.301C150.047 545.301 150.381 545.441 150.66 545.72C150.94 545.995 151.079 546.326 151.079 546.714C151.079 546.975 151.013 547.214 150.88 547.432C150.752 547.645 150.582 547.815 150.369 547.943C150.156 548.071 149.919 548.135 149.659 548.135ZM155.323 548.135C154.935 548.135 154.601 547.998 154.321 547.723C154.042 547.444 153.902 547.107 153.902 546.714C153.902 546.326 154.042 545.995 154.321 545.72C154.601 545.441 154.935 545.301 155.323 545.301C155.711 545.301 156.045 545.441 156.324 545.72C156.604 545.995 156.743 546.326 156.743 546.714C156.743 546.975 156.677 547.214 156.544 547.432C156.417 547.645 156.246 547.815 156.033 547.943C155.82 548.071 155.583 548.135 155.323 548.135ZM160.987 548.135C160.599 548.135 160.265 547.998 159.985 547.723C159.706 547.444 159.566 547.107 159.566 546.714C159.566 546.326 159.706 545.995 159.985 545.72C160.265 545.441 160.599 545.301 160.987 545.301C161.375 545.301 161.709 545.441 161.988 545.72C162.268 545.995 162.407 546.326 162.407 546.714C162.407 546.975 162.341 547.214 162.208 547.432C162.081 547.645 161.91 547.815 161.697 547.943C161.484 548.071 161.247 548.135 160.987 548.135ZM166.651 548.135C166.263 548.135 165.929 547.998 165.65 547.723C165.37 547.444 165.23 547.107 165.23 546.714C165.23 546.326 165.37 545.995 165.65 545.72C165.929 545.441 166.263 545.301 166.651 545.301C167.039 545.301 167.373 545.441 167.652 545.72C167.932 545.995 168.071 546.326 168.071 546.714C168.071 546.975 168.005 547.214 167.873 547.432C167.745 547.645 167.574 547.815 167.361 547.943C167.148 548.071 166.911 548.135 166.651 548.135Z" fill="black"/>
<path d="M87.5 593.5H44.5V634.5H87.5V593.5Z" fill="white" stroke="black"/>
<path d="M46.3535 592.646L88.3535 634.646" stroke="black"/>
<path d="M86.3535 593.354L44.3535 635.354" stroke="black"/>
<path d="M350 589H122C120.895 589 120 589.895 120 591C120 592.105 120.895 593 122 593H350C351.105 593 352 592.105 352 591C352 589.895 351.105 589 350 589Z" fill="white"/>
<path d="M170.75 617.833L159.5 612L170.75 606.167V617.833Z" stroke="black" stroke-width="2" stroke-linecap="round" stroke-linejoin="round"/>
<path d="M184.5 617.833L173.25 612L184.5 606.167V617.833Z" stroke="black" stroke-width="2" stroke-linecap="round" stroke-linejoin="round"/>
<path d="M132.703 629.5H217.297" stroke="black"/>
<path d="M134 634.5H218.593" stroke="black"/>
<path d="M134 643.5H218.593" stroke="black"/>
<mask id="mask0_62_2" style="mask-type:luminance" maskUnits="userSpaceOnUse" x="343" y="33" width="49" height="24">
<path d="M392 33H343V57H392V33Z" fill="white"/>
</mask>
<g mask="url(#mask0_62_2)">
<path d="M323 54H368" stroke="black" stroke-width="2" stroke-linecap="round" stroke-linejoin="round"/>
<path d="M323 45H368" stroke="black" stroke-width="2" stroke-linecap="round" stroke-linejoin="round"/>
</g>
<path d="M330 132C334.418 132 338 128.418 338 124C338 119.582 334.418 116 330 116C325.582 116 322 119.582 322 124C322 128.418 325.582 132 330 132Z" stroke="black" stroke-width="2" stroke-linecap="round" stroke-linejoin="round"/>
<path d="M340 134L335.65 129.65" stroke="black" stroke-width="2" stroke-linecap="round" stroke-linejoin="round"/>
<path d="M268 620L277 613L268 606V620Z" stroke="black" stroke-width="2" stroke-linecap="round" stroke-linejoin="round"/>
<path d="M257 620L266 613L257 606V620Z" stroke="black" stroke-width="2" stroke-linecap="round" stroke-linejoin="round"/>
<path d="M213 605H209V621H213V605Z" stroke="black" stroke-width="2" stroke-linecap="round" stroke-linejoin="round"/>
<path d="M221 605H217V621H221V605Z" stroke="black" stroke-width="2" stroke-linecap="round" stroke-linejoin="round"/>
<path d="M363.84 629.61C363.329 629.099 362.723 628.694 362.055 628.417C361.388 628.141 360.672 627.998 359.95 627.998C359.228 627.998 358.512 628.141 357.845 628.417C357.177 628.694 356.571 629.099 356.06 629.61L355 630.67L353.94 629.61C352.908 628.578 351.509 627.999 350.05 627.999C348.591 627.999 347.192 628.578 346.16 629.61C345.128 630.642 344.549 632.041 344.549 633.5C344.549 634.959 345.128 636.358 346.16 637.39L347.22 638.45L355 646.23L362.78 638.45L363.84 637.39C364.351 636.879 364.756 636.273 365.033 635.605C365.309 634.938 365.452 634.222 365.452 633.5C365.452 632.778 365.309 632.062 365.033 631.395C364.756 630.727 364.351 630.121 363.84 629.61Z" stroke="black" stroke-width="2" stroke-linecap="round" stroke-linejoin="round"/>
</g>
<defs>
<clipPath id="clip0_62_2">
<rect width="392" height="705" fill="white"/>
</clipPath>
</defs>
</svg>
